<?xml version="1.0" encoding="UTF-8"?>
<svg id="Layer_1" data-name="Layer 1" xmlns="http://www.w3.org/2000/svg" viewBox="0 0 48 48">
  <defs>
    <style>
      .cls-1 {
        fill: #c8f502;
      }
    </style>
  </defs>
  <path class="cls-1" d="M29.61,5.44h0c-.51,0-.99-.26-1.27-.69-.58-.91-2.25-1.72-4.33-1.72s-3.74.81-4.33,1.72c-.28.43-.76.69-1.27.69h0c-1.19,0-1.93-1.31-1.3-2.31,1.19-1.87,3.8-3.13,6.89-3.13s5.7,1.27,6.89,3.13c.64,1-.11,2.31-1.3,2.31Z"/>
  <path class="cls-1" d="M36.64,29.47c0-.18-.03-.37-.1-.55-.3-.78-1.18-1.17-1.96-.87-6.08,2.34-12.12,2.01-16.17,1.29l.26-.08c.8-.25,1.29-1.08,1.06-1.89s-1.1-1.28-1.91-1.03l-5.39,1.67s0,0,0,0c-.05.01-.09.03-.14.05-.01,0-.03.01-.04.02-.03.01-.06.03-.09.04-.02,0-.03.02-.05.03-.02.01-.05.03-.07.04-.02.01-.03.02-.05.04-.02.01-.04.03-.06.05-.02.01-.03.03-.05.04-.02.02-.04.04-.06.05-.01.01-.03.03-.04.04-.02.02-.04.04-.06.07-.01.01-.02.02-.03.04-.03.04-.06.07-.08.11,0,0,0,0,0,0,0,0,0,.01,0,.02-.02.03-.04.07-.06.11,0,.01-.01.02-.02.03-.02.03-.03.06-.04.09,0,.01-.01.03-.02.04-.01.03-.02.06-.03.09,0,.02-.01.04-.02.05,0,.03-.01.05-.02.08,0,.02,0,.04-.01.06,0,.02,0,.05-.01.07,0,.02,0,.04,0,.07,0,.02,0,.05,0,.07,0,.02,0,.05,0,.07,0,.03,0,.06,0,.08,0,.02,0,.04,0,.06,0,.05.01.09.02.14,0,.01,0,.03,0,.04,0,.03.02.07.03.1,0,0,0,.01,0,.02,0,.01,0,.02.01.04,0,.02.01.04.02.06,0,.02.02.04.02.06,0,.02.02.04.02.05.01.02.02.04.03.07,0,.01.02.03.02.04.02.03.03.05.05.08,0,0,.01.02.02.03.02.03.04.06.07.09,0,0,0,0,0,.01.03.04.06.07.09.1l4.35,4.35c.3.3.68.44,1.07.44.42,0,.84-.17,1.15-.52.53-.61.46-1.53-.11-2.1l-.35-.35c3.99.71,9.68,1.04,15.68-.77v9.51c0,2.13-1.73,3.86-3.86,3.86h-11.48c-2.13,0-3.86-1.73-3.86-3.86v-3.55c0-.84-.68-1.52-1.52-1.52h0c-.84,0-1.52.68-1.52,1.52v3.55c0,3.81,3.09,6.9,6.9,6.9h11.48c3.81,0,6.9-3.09,6.9-6.9v-11.63h0Z"/>
  <path class="cls-1" d="M36.37,25.54s.01-.02.02-.03c0,0,0,0,0,0,.03-.04.05-.08.07-.12,0,0,0-.02.01-.03.02-.03.03-.06.04-.1,0-.01.01-.03.02-.04.01-.03.02-.06.03-.09,0-.02.01-.04.01-.05,0-.03.01-.05.02-.08,0-.02,0-.04.01-.06,0-.02,0-.05.01-.07,0-.02,0-.04,0-.07,0-.02,0-.05,0-.07,0-.02,0-.05,0-.07,0-.03,0-.05,0-.08,0-.02,0-.04,0-.06,0-.05-.01-.09-.02-.13,0-.01,0-.03,0-.04,0-.03-.02-.07-.03-.1,0,0,0-.01,0-.02,0,0,0-.02-.01-.03-.01-.03-.02-.06-.03-.09,0-.02-.01-.03-.02-.05-.01-.03-.03-.05-.04-.08,0-.02-.02-.03-.03-.05-.01-.02-.03-.05-.05-.07-.01-.02-.02-.03-.03-.05-.02-.03-.04-.06-.06-.08-.02-.02-.04-.05-.06-.07-.02-.02-.03-.04-.05-.05h-.01s0-.01,0-.01l-4.34-4.34c-.62-.62-1.63-.59-2.21.07-.53.61-.47,1.54.11,2.11l.36.36c-4.01-.71-9.74-1.06-15.69.75v-8.67c0-2.13,1.73-3.86,3.86-3.86h11.48c2.13,0,3.86,1.73,3.86,3.86v2.72c0,.84.68,1.52,1.52,1.52h0c.84,0,1.52-.68,1.52-1.52v-2.72c0-3.81-3.09-6.9-6.9-6.9h-11.48c-3.81,0-6.9,3.09-6.9,6.9v10.8h0c0,.18.03.37.1.55.23.6.81.97,1.41.97.18,0,.37-.03.55-.1,6-2.35,12.06-2,16.14-1.28l-.24.08c-.79.25-1.28,1.07-1.06,1.87.19.67.8,1.11,1.46,1.11.15,0,.3-.02.45-.07l5.39-1.67s0,0,0,0c.04-.01.09-.03.13-.05.02,0,.03-.02.05-.02.03-.01.05-.02.08-.04.02-.01.04-.02.06-.03.02-.01.04-.02.06-.04.02-.01.04-.03.06-.04.02-.01.04-.03.06-.04.02-.01.04-.03.05-.04.02-.02.04-.03.05-.05.02-.01.03-.03.05-.04.02-.02.04-.04.05-.06.01-.01.03-.03.04-.04.02-.03.04-.06.06-.09Z"/>
  <circle class="cls-1" cx="23.81" cy="40.94" r="2.44"/>
</svg>