<svg width="22" height="21" viewBox="0 0 22 21" fill="none" xmlns="http://www.w3.org/2000/svg">
<path d="M16.0706 3.7467C15.3915 3.7467 14.842 4.29612 14.842 4.97527C14.842 5.65441 15.3915 6.20383 16.0706 6.20383C16.7497 6.20383 17.2992 5.65441 17.2992 4.97527C17.2992 4.29612 16.7497 3.7467 16.0706 3.7467Z" fill="#242424"/>
<path d="M10.5917 5.32629C7.73774 5.32629 5.41797 7.64606 5.41797 10.5C5.41797 13.3539 7.73774 15.6737 10.5917 15.6737C13.4456 15.6737 15.7654 13.3539 15.7654 10.5C15.7654 7.64606 13.4456 5.32629 10.5917 5.32629ZM10.5917 13.8118C8.7679 13.8118 7.27989 12.3238 7.27989 10.5C7.27989 8.67622 8.7679 7.18821 10.5917 7.18821C12.4154 7.18821 13.9034 8.67622 13.9034 10.5C13.9034 12.3238 12.4154 13.8118 10.5917 13.8118Z" fill="#242424"/>
<path d="M14.6969 21H6.31068C2.83103 21 0 18.169 0 14.6893V6.30305C0.00763081 2.83103 2.83866 0 6.31831 0H14.7046C18.1842 0 21.0153 2.83103 21.0153 6.31068V14.6969C21.0153 18.1766 18.1842 21.0076 14.7046 21.0076L14.6969 21ZM6.31831 1.97638C3.92987 1.97638 1.98401 3.92224 1.98401 6.31068V14.6969C1.98401 17.0854 3.92987 19.0312 6.31831 19.0312H14.7046C17.093 19.0312 19.0389 17.0854 19.0389 14.6969V6.31068C19.0389 3.92224 17.093 1.97638 14.7046 1.97638H6.31831Z" fill="#242424"/>
</svg>
