<svg width="217" height="56" viewBox="0 0 217 56" fill="none" xmlns="http://www.w3.org/2000/svg">
<path d="M21.2915 6.35071C20.6927 6.35071 20.1329 6.05025 19.8086 5.54661C19.1277 4.4896 17.1888 3.54066 14.7592 3.54066C12.3296 3.54066 10.3906 4.48743 9.70974 5.54661C9.38551 6.05025 8.82566 6.35071 8.2269 6.35071C6.84349 6.35071 5.97021 4.82032 6.71596 3.65307C8.10369 1.47636 11.1472 0 14.7592 0C18.3712 0 21.4147 1.47636 22.8024 3.65307C23.5482 4.82032 22.6749 6.35071 21.2915 6.35071Z" fill="#C8F502"/>
<path d="M29.4861 34.3821C29.4861 34.1702 29.4493 33.9562 29.3694 33.7466C29.0192 32.8344 27.9946 32.3804 27.0824 32.7306C19.9838 35.4628 12.9457 35.0738 8.21616 34.2394L8.52094 34.1443C9.45258 33.8568 10.0254 32.8798 9.75304 31.9438C9.48068 31.0078 8.47339 30.4545 7.52878 30.7463L1.24507 32.6917C1.24507 32.6917 1.24507 32.6917 1.24291 32.6917C1.18887 32.709 1.13699 32.7284 1.08511 32.7501C1.06998 32.7565 1.05269 32.7652 1.03756 32.7717C1.00297 32.7868 0.970549 32.8019 0.938125 32.8192C0.918671 32.83 0.897055 32.8409 0.877601 32.8538C0.851662 32.869 0.823561 32.8862 0.797623 32.9035C0.776007 32.9165 0.756553 32.9316 0.737098 32.9446C0.713321 32.9619 0.689544 32.9814 0.665766 32.9986C0.646312 33.0138 0.626858 33.0289 0.609565 33.044C0.585788 33.0635 0.564172 33.0851 0.542556 33.1067C0.525264 33.1219 0.507971 33.1391 0.49284 33.1543C0.469063 33.1802 0.445285 33.2062 0.423669 33.2321C0.4107 33.2472 0.39773 33.2602 0.386923 33.2753C0.354499 33.3164 0.322075 33.3596 0.291813 33.405C0.28749 33.4115 0.285328 33.418 0.281005 33.4223C0.255066 33.4634 0.231289 33.5045 0.207512 33.5455C0.201027 33.5585 0.194542 33.5715 0.188057 33.5866C0.170765 33.6212 0.153472 33.6579 0.138341 33.6947C0.131856 33.712 0.125372 33.7293 0.118887 33.7466C0.105917 33.779 0.0929479 33.8136 0.0843016 33.846C0.0778168 33.8654 0.0713321 33.8871 0.0670089 33.9087C0.0583626 33.9389 0.0497163 33.9692 0.0432316 34.0016C0.0389084 34.0254 0.0345853 34.0492 0.0302621 34.073C0.0259389 34.1011 0.0216158 34.1292 0.0172926 34.1594C0.0129695 34.1854 0.0108079 34.2113 0.00864631 34.2372C0.00648474 34.2653 0.00432316 34.2934 0.00432316 34.3194C0.00432316 34.3453 0.00432316 34.3712 0.00432316 34.3993C0.00432316 34.4318 0.00648474 34.4642 0.00864631 34.4966C0.00864631 34.5182 0.00864631 34.5399 0.0129695 34.5615C0.0172926 34.6133 0.0259389 34.6674 0.0367468 34.7193C0.0389084 34.7366 0.0453932 34.7517 0.0475547 34.769C0.056201 34.8079 0.0648474 34.8468 0.0778168 34.8857C0.0778168 34.8922 0.08214 34.9008 0.0843016 34.9073C0.0886247 34.9225 0.0951095 34.9354 0.0994326 34.9506C0.108079 34.9743 0.116725 35.0003 0.125372 35.024C0.134018 35.0478 0.144826 35.0716 0.153472 35.0932C0.162118 35.1148 0.172926 35.1364 0.181573 35.1559C0.194542 35.1818 0.207512 35.2078 0.222643 35.2337C0.231289 35.251 0.239935 35.2661 0.250743 35.2834C0.268036 35.3137 0.28749 35.3418 0.306944 35.3721C0.31559 35.3829 0.322075 35.3958 0.330722 35.4066C0.35666 35.4434 0.382599 35.478 0.4107 35.5104C0.415023 35.5147 0.417185 35.519 0.421508 35.5234C0.456093 35.5644 0.49284 35.6055 0.531748 35.6423L5.60497 40.7155C5.95083 41.0613 6.4026 41.2343 6.85653 41.2343C7.34937 41.2343 7.84005 41.0311 8.19454 40.6225C8.81059 39.9135 8.73278 38.8371 8.06917 38.1735L7.65847 37.7628C12.3102 38.5863 18.9506 38.9797 25.9541 36.8592V47.9568C25.9541 50.4447 23.9373 52.4636 21.4472 52.4636H8.05188C5.5639 52.4636 3.54499 50.4469 3.54499 47.9568V43.8109C3.54499 42.8338 2.75169 42.0405 1.77466 42.0405C0.793299 42.0384 0 42.8295 0 43.8087V47.9546C0 52.3988 3.60119 56 8.0454 56H21.4407C25.8849 56 29.4861 52.3988 29.4861 47.9546V34.3821Z" fill="#C8F502"/>
<path d="M29.1748 29.7952C29.1748 29.7952 29.19 29.7758 29.1964 29.7649C29.2267 29.7196 29.2526 29.672 29.2786 29.6244C29.2851 29.6136 29.2894 29.6007 29.2959 29.5877C29.3153 29.551 29.3326 29.5142 29.3478 29.4753C29.3542 29.458 29.3607 29.4429 29.3672 29.4256C29.3802 29.391 29.3931 29.3586 29.404 29.324C29.4104 29.3045 29.4148 29.2829 29.4212 29.2635C29.4299 29.2332 29.4385 29.2008 29.445 29.1705C29.4493 29.1467 29.4537 29.123 29.458 29.0992C29.4623 29.0711 29.4666 29.043 29.471 29.0127C29.4731 28.9868 29.4774 28.9608 29.4796 28.9349C29.4818 28.9068 29.4839 28.8787 29.4839 28.8528C29.4839 28.8268 29.4839 28.8009 29.4839 28.7728C29.4839 28.7404 29.4818 28.7101 29.4796 28.6798C29.4796 28.6582 29.4796 28.6344 29.4753 28.6128C29.471 28.5609 29.4623 28.5069 29.4515 28.455C29.4493 28.4399 29.4429 28.4226 29.4407 28.4075C29.4321 28.3686 29.4212 28.3297 29.4104 28.2908C29.4104 28.2843 29.4083 28.2778 29.4061 28.2691C29.4018 28.2583 29.3975 28.2475 29.3931 28.2367C29.3823 28.2 29.3694 28.1654 29.3542 28.1308C29.3456 28.1113 29.3391 28.0919 29.3305 28.0746C29.3153 28.0422 29.3002 28.0119 29.2851 27.9795C29.2743 27.96 29.2656 27.9406 29.2548 27.9233C29.2375 27.8952 29.2202 27.8649 29.2029 27.8368C29.1921 27.8174 29.1792 27.8001 29.1683 27.7806C29.1446 27.7482 29.1208 27.7158 29.0949 27.6833C29.0711 27.6552 29.0473 27.6271 29.0235 27.6012C29.0041 27.5818 28.9868 27.5601 28.9673 27.5407L28.9543 27.5277H28.9522L23.8876 22.461C23.1678 21.7433 21.9854 21.7714 21.3045 22.5474C20.682 23.2564 20.762 24.3415 21.4277 25.0073L21.8471 25.4267C17.1694 24.5966 10.488 24.1859 3.53634 26.3064V16.1946C3.53634 13.7066 5.5531 11.6877 8.04323 11.6877H21.4385C23.9265 11.6877 25.9454 13.7044 25.9454 16.1946V19.3721C25.9454 20.3491 26.7387 21.1424 27.7158 21.1424C28.6928 21.1424 29.4861 20.3491 29.4861 19.3721V16.1946C29.4861 11.7504 25.8849 8.14917 21.4407 8.14917H8.0454C3.60119 8.15133 0 11.7547 0 16.1967V28.7944C0 29.0084 0.0367468 29.2267 0.121048 29.4385C0.393407 30.1367 1.06134 30.5647 1.77033 30.5647C1.98433 30.5647 2.20265 30.5258 2.41448 30.4437C9.41368 27.7071 16.4842 28.1049 21.2505 28.9457L20.9673 29.0343C20.0422 29.3218 19.4693 30.288 19.7331 31.2218C19.9535 32.0065 20.6669 32.5123 21.4364 32.5123C21.6093 32.5123 21.7866 32.4864 21.9595 32.4323L28.2432 30.4869C28.2432 30.4869 28.2497 30.4869 28.2518 30.4848C28.3037 30.4696 28.3534 30.4502 28.4031 30.4286C28.4226 30.4199 28.4399 30.4113 28.4593 30.4026C28.4896 30.3896 28.5199 30.3745 28.5501 30.3594C28.5739 30.3464 28.5955 30.3334 28.6171 30.3205C28.6409 30.3053 28.6669 30.2924 28.6906 30.2751C28.7122 30.2599 28.7339 30.2448 28.7555 30.2297C28.7771 30.2146 28.8009 30.1973 28.8225 30.18C28.8419 30.1627 28.8636 30.1475 28.883 30.1303C28.9046 30.1108 28.9262 30.0913 28.9457 30.0719C28.963 30.0546 28.9824 30.0373 28.9997 30.02C29.0214 29.9962 29.043 29.9725 29.0624 29.9487C29.0776 29.9314 29.0927 29.9163 29.1057 29.899C29.1316 29.8665 29.1554 29.832 29.1792 29.7995L29.1748 29.7952Z" fill="#C8F502"/>
<path d="M14.5237 50.6155C16.0959 50.6155 17.3705 49.3409 17.3705 47.7687C17.3705 46.1964 16.0959 44.9219 14.5237 44.9219C12.9514 44.9219 11.6769 46.1964 11.6769 47.7687C11.6769 49.3409 12.9514 50.6155 14.5237 50.6155Z" fill="#C8F502"/>
<path d="M44.8656 20.7208C45.0667 20.7208 45.2288 20.7749 45.3498 20.8829C45.4709 20.991 45.5314 21.138 45.5314 21.3261V22.9386C45.5314 23.1267 45.4709 23.2736 45.3498 23.3817C45.2288 23.4898 45.0667 23.5438 44.8656 23.5438H41.5995V33.2234C41.5995 33.4114 41.5454 33.5606 41.4374 33.6665C41.3293 33.7746 41.1823 33.8286 40.9942 33.8286H39.1785C38.9905 33.8286 38.8413 33.7746 38.7354 33.6665C38.6273 33.5584 38.5733 33.4114 38.5733 33.2234V23.5438H35.3071C35.1061 23.5438 34.944 23.4898 34.8229 23.3817C34.7019 23.2736 34.6414 23.1267 34.6414 22.9386V21.3261C34.6414 21.138 34.7019 20.991 34.8229 20.8829C34.944 20.7749 35.1061 20.7208 35.3071 20.7208H44.8656Z" fill="#313131"/>
<path d="M59.2447 20.7208C59.4327 20.7208 59.5797 20.7792 59.6878 20.8916C59.7959 21.0062 59.8499 21.1575 59.8499 21.3455V28.081C59.8499 29.0624 59.6986 29.9291 59.396 30.6835C59.0934 31.4358 58.6697 32.0691 58.125 32.5792C57.5803 33.0894 56.9253 33.4763 56.1579 33.7378C55.3927 33.9994 54.5368 34.1313 53.5965 34.1313C52.6562 34.1313 51.8024 33.9994 51.035 33.7378C50.2698 33.4763 49.6127 33.0894 49.068 32.5792C48.5232 32.0691 48.0996 31.4358 47.7969 30.6835C47.4943 29.9313 47.343 29.0624 47.343 28.081V21.3455C47.343 21.1575 47.3971 21.0062 47.5051 20.8916C47.6132 20.777 47.7602 20.7208 47.9483 20.7208H49.764C49.952 20.7208 50.099 20.7792 50.2071 20.8916C50.3152 21.0062 50.3692 21.1575 50.3692 21.3455V28.081C50.3692 29.0624 50.6718 29.8297 51.2771 30.3809C51.8823 30.9321 52.6562 31.2088 53.5965 31.2088C54.5368 31.2088 55.3106 30.9343 55.9158 30.3809C56.5211 29.8297 56.8237 29.0624 56.8237 28.081V21.3455C56.8237 21.1575 56.8777 21.0062 56.9858 20.8916C57.0939 20.777 57.2409 20.7208 57.4289 20.7208H59.2447Z" fill="#313131"/>
<path d="M62.2685 21.3261C62.2685 21.138 62.3226 20.991 62.4306 20.8829C62.5387 20.7749 62.6857 20.7208 62.8738 20.7208H64.6895C64.8775 20.7208 65.0245 20.7749 65.1326 20.8829C65.2407 20.991 65.2947 21.138 65.2947 21.3261V26.2069H67.5341L70.6792 21.3261C70.7873 21.1791 70.8911 21.0407 70.9927 20.9132C71.0942 20.7857 71.2369 20.7208 71.4271 20.7208H73.5844C73.7724 20.7208 73.9237 20.7857 74.0383 20.9132C74.1529 21.0407 74.155 21.1791 74.0491 21.3261L70.5798 26.6911C71.5482 27.0542 72.3069 27.586 72.8581 28.2842C73.4093 28.9824 73.686 29.8038 73.686 30.7441V33.245C73.686 33.4201 73.6363 33.5606 73.5347 33.6687C73.4331 33.7768 73.2882 33.8308 73.1002 33.8308H71.2845C71.0964 33.8308 70.9451 33.7768 70.8305 33.6687C70.716 33.5606 70.6598 33.4201 70.6598 33.245V31.0661C70.6598 30.636 70.5949 30.2901 70.4674 30.0286C70.3399 29.767 70.1475 29.5617 69.8924 29.4125C69.6373 29.2655 69.3174 29.1639 68.9348 29.1099C68.5522 29.0559 68.1048 29.0299 67.5925 29.0299H65.2926V33.2256C65.2926 33.4136 65.2385 33.5628 65.1304 33.6687C65.0224 33.7768 64.8754 33.8308 64.6873 33.8308H62.8716C62.6835 33.8308 62.5344 33.7768 62.4285 33.6687C62.3204 33.5606 62.2664 33.4136 62.2664 33.2256V21.3261H62.2685Z" fill="#313131"/>
<path d="M76.1438 21.3261C76.1438 21.138 76.1978 20.991 76.3059 20.8829C76.414 20.7749 76.561 20.7208 76.749 20.7208H85.9249C86.113 20.7208 86.26 20.7749 86.3681 20.8829C86.4761 20.991 86.5302 21.138 86.5302 21.3261V22.9386C86.5302 23.1267 86.4761 23.2736 86.3681 23.3817C86.26 23.4898 86.113 23.5438 85.9249 23.5438H79.1678V25.8632H85.1165C85.3046 25.8632 85.4516 25.9173 85.5596 26.0253C85.6677 26.1334 85.7218 26.2804 85.7218 26.4685V28.081C85.7218 28.2691 85.6677 28.4182 85.5596 28.5241C85.4516 28.63 85.3046 28.6862 85.1165 28.6862H79.1678V31.0056H86.126C86.314 31.0056 86.461 31.0597 86.5691 31.1677C86.6772 31.2758 86.7312 31.4228 86.7312 31.6109V33.2234C86.7312 33.4114 86.6772 33.5606 86.5691 33.6665C86.461 33.7746 86.314 33.8286 86.126 33.8286H76.749C76.561 33.8286 76.4118 33.7746 76.3059 33.6665C76.1978 33.5584 76.1438 33.4114 76.1438 33.2234V21.3239V21.3261Z" fill="#313131"/>
<path d="M88.75 21.3261C88.75 21.138 88.804 20.991 88.9121 20.8829C89.0202 20.7749 89.1671 20.7208 89.3552 20.7208H95.7275C96.4257 20.7208 97.0612 20.8181 97.6341 21.0126C98.2047 21.2072 98.6932 21.486 99.0953 21.8492C99.4995 22.2123 99.8108 22.649 100.033 23.1591C100.256 23.6692 100.366 24.242 100.366 24.8732C100.366 25.5044 100.239 26.1075 99.9837 26.5982C99.7286 27.0888 99.3849 27.5082 98.9548 27.8584C99.3439 28.2474 99.6443 28.6862 99.8518 29.1683C100.059 29.6525 100.165 30.1777 100.165 30.7419V33.2428C100.165 33.4179 100.116 33.5584 100.014 33.6665C99.9124 33.7746 99.7675 33.8286 99.5795 33.8286H97.7637C97.5757 33.8286 97.4244 33.7746 97.3098 33.6665C97.1953 33.5584 97.1391 33.4179 97.1391 33.2428V31.064C97.1391 30.6338 97.0677 30.288 96.9272 30.0264C96.7867 29.7649 96.5835 29.5595 96.322 29.4104C96.0604 29.2634 95.7405 29.1618 95.3644 29.1077C94.9883 29.0537 94.5581 29.0278 94.0739 29.0278H91.774V33.2234C91.774 33.4114 91.72 33.5606 91.6119 33.6665C91.5038 33.7746 91.3568 33.8286 91.1688 33.8286H89.353C89.165 33.8286 89.0158 33.7746 88.9099 33.6665C88.8018 33.5584 88.7478 33.4114 88.7478 33.2234V21.3239L88.75 21.3261ZM91.774 26.2047H95.5244C96.0345 26.2047 96.4495 26.0837 96.7651 25.8416C97.0807 25.5995 97.2385 25.2709 97.2385 24.8538C97.2385 24.4647 97.0807 24.1469 96.7651 23.907C96.4495 23.6649 96.0345 23.5438 95.5244 23.5438H91.774V26.2069V26.2047Z" fill="#313131"/>
<path d="M101.778 31.6109C101.778 31.4228 101.832 31.2758 101.94 31.1677C102.048 31.0597 102.195 31.0056 102.383 31.0056H103.393V23.5438H102.383C102.195 23.5438 102.046 23.4898 101.94 23.3817C101.832 23.2736 101.778 23.1267 101.778 22.9386V21.3261C101.778 21.138 101.832 20.991 101.94 20.8829C102.048 20.7749 102.195 20.7208 102.383 20.7208H107.424C107.612 20.7208 107.759 20.7749 107.867 20.8829C107.975 20.991 108.029 21.138 108.029 21.3261V22.9386C108.029 23.1267 107.975 23.2736 107.867 23.3817C107.759 23.4898 107.612 23.5438 107.424 23.5438H106.415V31.0056H107.424C107.612 31.0056 107.759 31.0597 107.867 31.1677C107.975 31.2758 108.029 31.4228 108.029 31.6109V33.2234C108.029 33.4114 107.975 33.5606 107.867 33.6665C107.759 33.7724 107.612 33.8286 107.424 33.8286H102.383C102.195 33.8286 102.046 33.7746 101.94 33.6665C101.832 33.5584 101.778 33.4114 101.778 33.2234V31.6109Z" fill="#313131"/>
<path d="M118.699 33.3445C118.376 32.6182 117.983 31.853 117.518 31.0446C117.054 30.2383 116.561 29.4515 116.035 28.6841C115.51 27.9189 114.972 27.1991 114.423 26.5269C113.872 25.8546 113.355 25.2905 112.871 24.8322V33.2213C112.871 33.4093 112.817 33.5585 112.709 33.6644C112.601 33.7725 112.454 33.8265 112.266 33.8265H110.45C110.262 33.8265 110.113 33.7725 110.007 33.6644C109.899 33.5563 109.845 33.4093 109.845 33.2213V21.3218C109.845 21.1337 109.899 20.9867 110.007 20.8787C110.115 20.7706 110.262 20.7166 110.45 20.7166H111.459C111.81 20.7166 112.197 20.8354 112.62 21.0689C113.044 21.3045 113.491 21.6179 113.96 22.007C114.432 22.3961 114.905 22.8479 115.383 23.358C115.86 23.8681 116.327 24.4042 116.783 24.9619C117.239 25.5196 117.667 26.0838 118.063 26.6566C118.459 27.2272 118.813 27.7698 119.122 28.2799V21.3218C119.122 21.1337 119.176 20.9867 119.284 20.8787C119.392 20.7706 119.539 20.7166 119.727 20.7166H121.543C121.731 20.7166 121.878 20.7706 121.986 20.8787C122.094 20.9867 122.148 21.1337 122.148 21.3218V33.2213C122.148 33.4093 122.094 33.5585 121.986 33.6644C121.878 33.7725 121.731 33.8265 121.543 33.8265H119.667C119.479 33.8265 119.287 33.7854 119.092 33.7055C118.897 33.6255 118.766 33.5044 118.699 33.3423V33.3445Z" fill="#313131"/>
<path d="M134.651 33.8286C134.463 33.8286 134.316 33.7746 134.208 33.6665C134.1 33.5584 134.046 33.4115 134.046 33.2234V30.4198H127.592V33.2234C127.592 33.4115 127.538 33.5606 127.43 33.6665C127.322 33.7724 127.175 33.8286 126.987 33.8286H125.171C124.983 33.8286 124.834 33.7746 124.728 33.6665C124.62 33.5584 124.566 33.4115 124.566 33.2234V26.6695C124.566 25.6881 124.717 24.8105 125.019 24.0389C125.322 23.265 125.746 22.6101 126.29 22.0718C126.835 21.5336 127.49 21.125 128.258 20.8419C129.025 20.5587 129.879 20.4182 130.819 20.4182C131.759 20.4182 132.613 20.5587 133.38 20.8419C134.148 21.125 134.803 21.5336 135.348 22.0718C135.892 22.6101 136.316 23.265 136.619 24.0389C136.921 24.8127 137.072 25.6903 137.072 26.6695V33.2234C137.072 33.4115 137.018 33.5606 136.91 33.6665C136.802 33.7746 136.655 33.8286 136.467 33.8286H134.651ZM127.592 27.5968H134.046V26.6695C134.046 26.1853 133.966 25.7379 133.804 25.3293C133.642 24.9186 133.422 24.5663 133.138 24.2701C132.855 23.974 132.516 23.7449 132.12 23.5849C131.725 23.4228 131.29 23.3428 130.819 23.3428C130.348 23.3428 129.915 23.4228 129.518 23.5849C129.12 23.747 128.781 23.974 128.5 24.2701C128.216 24.5663 127.996 24.9186 127.834 25.3293C127.672 25.74 127.592 26.1875 127.592 26.6695V27.5968Z" fill="#313131"/>
<path d="M141.81 30.3204C141.944 30.6425 142.193 30.8716 142.556 31.0056C142.919 31.1396 143.295 31.2066 143.684 31.2066C144.303 31.2066 144.828 31.0424 145.258 30.7116C145.688 30.3831 145.904 29.8146 145.904 29.0083V21.3455C145.904 21.1575 145.958 21.0062 146.066 20.8916C146.175 20.777 146.321 20.7208 146.51 20.7208H148.325C148.513 20.7208 148.66 20.7813 148.768 20.9024C148.876 21.0234 148.931 21.1791 148.931 21.3671V28.9305C148.931 29.6827 148.846 30.3788 148.678 31.0186C148.509 31.6584 148.234 32.2074 147.85 32.6722C147.467 33.1369 146.959 33.4957 146.328 33.7508C145.697 34.0059 144.916 34.1334 143.989 34.1334C143.263 34.1334 142.591 34.0599 141.972 33.9108C141.354 33.7638 140.814 33.5347 140.349 33.2256C139.884 32.9164 139.508 32.523 139.221 32.0453C138.931 31.5676 138.76 30.9926 138.706 30.3204C138.693 30.1323 138.739 29.9853 138.847 29.8773C138.955 29.7692 139.102 29.7151 139.29 29.7151H141.106C141.415 29.7151 141.65 29.9162 141.812 30.3204H141.81Z" fill="#313131"/>
<path d="M161.232 33.8286C161.044 33.8286 160.897 33.7746 160.789 33.6665C160.681 33.5584 160.627 33.4115 160.627 33.2234V30.4198H154.172V33.2234C154.172 33.4115 154.118 33.5606 154.01 33.6665C153.902 33.7724 153.755 33.8286 153.567 33.8286H151.751C151.563 33.8286 151.414 33.7746 151.308 33.6665C151.2 33.5584 151.146 33.4115 151.146 33.2234V26.6695C151.146 25.6881 151.298 24.8105 151.6 24.0389C151.903 23.265 152.326 22.6101 152.871 22.0718C153.416 21.5336 154.071 21.125 154.838 20.8419C155.606 20.5587 156.459 20.4182 157.4 20.4182C158.34 20.4182 159.194 20.5587 159.961 20.8419C160.729 21.125 161.383 21.5336 161.928 22.0718C162.473 22.6101 162.897 23.265 163.199 24.0389C163.502 24.8127 163.653 25.6903 163.653 26.6695V33.2234C163.653 33.4115 163.599 33.5606 163.491 33.6665C163.383 33.7746 163.236 33.8286 163.048 33.8286H161.232ZM154.172 27.5968H160.627V26.6695C160.627 26.1853 160.547 25.7379 160.385 25.3293C160.223 24.9186 160.002 24.5663 159.719 24.2701C159.436 23.974 159.097 23.7449 158.701 23.5849C158.305 23.4228 157.871 23.3428 157.4 23.3428C156.928 23.3428 156.496 23.4228 156.098 23.5849C155.701 23.747 155.361 23.974 155.08 24.2701C154.797 24.5663 154.577 24.9186 154.415 25.3293C154.252 25.74 154.172 26.1875 154.172 26.6695V27.5968Z" fill="#313131"/>
<path d="M165.667 32.6182C165.667 32.1621 165.806 31.7946 166.08 31.5201C166.355 31.2456 166.722 31.1072 167.178 31.1072C167.635 31.1072 168.002 31.2456 168.277 31.5201C168.551 31.7968 168.689 32.1621 168.689 32.6182C168.689 33.0743 168.551 33.4417 168.277 33.7163C168 33.9908 167.635 34.1291 167.178 34.1291C166.722 34.1291 166.355 33.9908 166.08 33.7163C165.804 33.4417 165.667 33.0743 165.667 32.6182Z" fill="#313131"/>
<path d="M177.446 34.1313C176.437 34.1313 175.509 33.9735 174.662 33.6579C173.815 33.3423 173.082 32.8884 172.464 32.2961C171.845 31.7038 171.366 30.9862 171.022 30.1388C170.678 29.2915 170.507 28.3382 170.507 27.2747C170.507 26.2112 170.676 25.258 171.011 24.4106C171.346 23.5633 171.817 22.8435 172.423 22.2534C173.028 21.6611 173.754 21.2094 174.601 20.8916C175.449 20.576 176.383 20.4182 177.405 20.4182C179.167 20.4182 180.557 20.7403 181.579 21.3866C182.601 22.0329 183.192 22.9667 183.354 24.1902C183.38 24.3653 183.341 24.5101 183.233 24.6246C183.125 24.7392 182.978 24.7954 182.79 24.7954H180.974C180.827 24.7954 180.697 24.7543 180.591 24.6744C180.483 24.5944 180.349 24.4452 180.187 24.2312C179.958 23.9221 179.612 23.6973 179.149 23.5568C178.685 23.4163 178.164 23.345 177.587 23.345C176.389 23.345 175.436 23.6844 174.723 24.3631C174.009 25.0418 173.653 26.0059 173.653 27.2574C173.653 28.509 174.026 29.4731 174.772 30.1518C175.518 30.8305 176.504 31.1699 177.727 31.1699C178.399 31.1699 178.968 31.0986 179.43 30.9581C179.895 30.8176 180.241 30.5928 180.47 30.2815C180.632 30.0675 180.766 29.9183 180.874 29.8384C180.982 29.7584 181.11 29.7173 181.257 29.7173H183.073C183.261 29.7173 183.408 29.7757 183.516 29.8881C183.624 30.0026 183.663 30.1475 183.637 30.3226C183.475 31.546 182.874 32.4885 181.832 33.1456C180.79 33.8049 179.327 34.1334 177.446 34.1334V34.1313Z" fill="#313131"/>
<path d="M185.271 27.2748C185.271 26.2394 185.436 25.3013 185.766 24.4605C186.095 23.6196 186.56 22.902 187.158 22.3032C187.757 21.7044 188.479 21.2419 189.326 20.9111C190.174 20.5826 191.108 20.4161 192.13 20.4161C193.152 20.4161 194.103 20.5804 194.942 20.9111C195.783 21.2397 196.501 21.7044 197.099 22.3032C197.698 22.902 198.161 23.6218 198.491 24.4605C198.82 25.3013 198.986 26.2394 198.986 27.2748C198.986 28.3102 198.822 29.2311 198.491 30.0784C198.163 30.9257 197.698 31.6477 197.099 32.2465C196.501 32.8452 195.781 33.3078 194.942 33.6385C194.101 33.9671 193.163 34.1335 192.13 34.1335C191.097 34.1335 190.174 33.9692 189.326 33.6385C188.479 33.3099 187.757 32.8452 187.158 32.2465C186.56 31.6477 186.097 30.9257 185.766 30.0784C185.436 29.2311 185.271 28.2972 185.271 27.2748ZM188.397 27.2748C188.397 27.8671 188.488 28.4032 188.669 28.8874C188.851 29.3716 189.104 29.7844 189.426 30.1281C189.748 30.4718 190.139 30.7377 190.595 30.9257C191.051 31.1138 191.564 31.2089 192.128 31.2089C192.692 31.2089 193.204 31.1159 193.66 30.9257C194.116 30.7377 194.508 30.4718 194.83 30.1281C195.152 29.7844 195.405 29.3716 195.586 28.8874C195.768 28.4032 195.859 27.8649 195.859 27.2748C195.859 26.6847 195.768 26.1443 195.586 25.6623C195.405 25.1781 195.152 24.7652 194.83 24.4215C194.508 24.0779 194.116 23.8141 193.66 23.6239C193.202 23.4359 192.692 23.3408 192.128 23.3408C191.564 23.3408 191.051 23.4359 190.595 23.6239C190.137 23.812 189.748 24.0779 189.426 24.4215C189.104 24.7652 188.851 25.1781 188.669 25.6623C188.488 26.1465 188.397 26.6847 188.397 27.2748Z" fill="#313131"/>
<path d="M201.204 21.3261C201.204 21.138 201.258 20.991 201.366 20.8829C201.474 20.7749 201.621 20.7208 201.809 20.7208H203.625C203.813 20.7208 203.988 20.7684 204.15 20.8613C204.312 20.9564 204.44 21.084 204.533 21.2439L208.607 28.6452L212.682 21.2439C212.775 21.0818 212.904 20.9543 213.064 20.8613C213.227 20.7684 213.399 20.7208 213.59 20.7208H215.405C215.593 20.7208 215.74 20.7749 215.849 20.8829C215.957 20.991 216.011 21.138 216.011 21.3261V33.2256C216.011 33.4136 215.957 33.5628 215.849 33.6687C215.74 33.7768 215.593 33.8308 215.405 33.8308H213.59C213.402 33.8308 213.252 33.7768 213.147 33.6687C213.039 33.5606 212.984 33.4136 212.984 33.2256V26.7322L210.302 31.4314C210.207 31.5936 210.079 31.7211 209.919 31.814C209.757 31.9091 209.582 31.9545 209.394 31.9545H207.82C207.632 31.9545 207.457 31.907 207.295 31.814C207.133 31.7211 207.006 31.5914 206.913 31.4314L204.23 26.7322V33.2256C204.23 33.4136 204.176 33.5628 204.068 33.6687C203.96 33.7768 203.813 33.8308 203.625 33.8308H201.809C201.621 33.8308 201.472 33.7768 201.366 33.6687C201.258 33.5606 201.204 33.4136 201.204 33.2256V21.3261Z" fill="#313131"/>
<path d="M66.3278 43.1429V37.7714H67.454C67.9944 37.7714 68.4203 37.8254 68.7337 37.9313C69.0687 38.0351 69.3757 38.2123 69.648 38.4631C70.2014 38.9689 70.4802 39.6325 70.4802 40.456C70.4802 41.2796 70.1906 41.9497 69.6134 42.4598C69.3238 42.7149 69.019 42.8921 68.7013 42.9916C68.4051 43.091 67.9836 43.1407 67.4389 43.1407H66.3257L66.3278 43.1429ZM67.1384 42.3798H67.5037C67.8669 42.3798 68.1695 42.3409 68.4116 42.2653C68.6537 42.1831 68.8699 42.0556 69.0666 41.8784C69.4665 41.5152 69.6653 41.0397 69.6653 40.456C69.6653 39.8724 69.4686 39.3882 69.073 39.0229C68.7185 38.6965 68.1955 38.5322 67.5037 38.5322H67.1384V42.3798Z" fill="#313131"/>
<path d="M76.5288 41.8373H74.2289L73.6301 43.1429H72.7568L75.4134 37.4342L77.977 43.1429H77.0908L76.5266 41.8373H76.5288ZM76.1981 41.0765L75.4004 39.2499L74.5661 41.0765H76.1981Z" fill="#313131"/>
<path d="M82.6068 40.8538L84.269 43.1429H83.2768L81.7421 40.9446H81.5951V43.1429H80.7845V37.7714H81.7335C82.4425 37.7714 82.9548 37.9054 83.2704 38.1713C83.6184 38.4674 83.7913 38.8608 83.7913 39.3472C83.7913 39.7276 83.6832 40.054 83.4649 40.3285C83.2466 40.603 82.9591 40.7781 82.6024 40.8538H82.6068ZM81.5995 40.2377H81.8567C82.624 40.2377 83.0088 39.9437 83.0088 39.358C83.0088 38.8089 82.6349 38.5344 81.8891 38.5344H81.5995V40.2399V40.2377Z" fill="#313131"/>
<path d="M88.0262 37.7714V43.1429H87.2156V37.7714H88.0262Z" fill="#313131"/>
<path d="M92.2648 40.9618V43.1429H91.4542V37.7714H92.3729C92.8225 37.7714 93.1619 37.8016 93.3932 37.8643C93.6244 37.927 93.8298 38.0459 94.0049 38.2188C94.314 38.5214 94.4675 38.8997 94.4675 39.3601C94.4675 39.8508 94.3032 40.242 93.9725 40.5295C93.6417 40.817 93.1986 40.9618 92.6409 40.9618H92.2648ZM92.2648 40.2096H92.5674C93.311 40.2096 93.685 39.9221 93.685 39.3493C93.685 38.7765 93.3002 38.5171 92.5328 38.5171H92.2648V40.2075V40.2096Z" fill="#313131"/>
<path d="M100.2 41.8373H97.9L97.3013 43.1429H96.428L99.0846 37.4342L101.648 43.1429H100.762L100.198 41.8373H100.2ZM99.8692 41.0765L99.0716 39.2499L98.2372 41.0765H99.8692Z" fill="#313131"/>
<path d="M104.46 43.1429V37.7714H105.587C106.127 37.7714 106.553 37.8254 106.866 37.9313C107.201 38.0351 107.508 38.2123 107.781 38.4631C108.334 38.9689 108.613 39.6325 108.613 40.456C108.613 41.2796 108.323 41.9497 107.746 42.4598C107.456 42.7149 107.152 42.8921 106.834 42.9916C106.538 43.091 106.116 43.1407 105.571 43.1407H104.458L104.46 43.1429ZM105.271 42.3798H105.636C105.999 42.3798 106.302 42.3409 106.544 42.2653C106.786 42.1831 107.002 42.0556 107.199 41.8784C107.599 41.5152 107.798 41.0397 107.798 40.456C107.798 39.8724 107.601 39.3882 107.206 39.0229C106.851 38.6965 106.328 38.5322 105.636 38.5322H105.271V42.3798Z" fill="#313131"/>
<path d="M114.661 41.8373H112.361L111.762 43.1429H110.889L113.545 37.4342L116.109 43.1429H115.223L114.659 41.8373H114.661ZM114.33 41.0765L113.533 39.2499L112.698 41.0765H114.33Z" fill="#313131"/>
<path d="M126.018 40.3458H128.238V40.5231C128.238 40.9273 128.19 41.2839 128.095 41.5952C128.002 41.8827 127.847 42.1507 127.626 42.4015C127.127 42.9635 126.493 43.2423 125.724 43.2423C124.954 43.2423 124.33 42.9721 123.794 42.4274C123.258 41.8827 122.99 41.2277 122.99 40.4647C122.99 39.7017 123.262 39.0251 123.807 38.4825C124.351 37.9378 125.015 37.6655 125.797 37.6655C126.217 37.6655 126.608 37.7519 126.973 37.9227C127.321 38.0935 127.663 38.3723 128 38.7571L127.423 39.3104C126.982 38.7246 126.446 38.4307 125.813 38.4307C125.244 38.4307 124.768 38.6274 124.384 39.0186C123.999 39.4034 123.807 39.8854 123.807 40.4647C123.807 41.044 124.021 41.5563 124.451 41.9432C124.853 42.302 125.287 42.4815 125.756 42.4815C126.154 42.4815 126.513 42.3474 126.831 42.0772C127.148 41.8049 127.326 41.4806 127.362 41.1024H126.022V40.3415L126.018 40.3458Z" fill="#313131"/>
<path d="M134.305 41.8373H132.005L131.407 43.1429H130.533L133.19 37.4342L135.754 43.1429H134.867L134.303 41.8373H134.305ZM133.975 41.0765L133.177 39.2499L132.343 41.0765H133.975Z" fill="#313131"/>
<path d="M139.374 39.9135L141.464 37.7714H142.545L140.118 40.2032L142.56 43.1429H141.475L139.541 40.7522L139.374 40.9186V43.1407H138.564V37.7692H139.374V39.9114V39.9135Z" fill="#313131"/>
<path d="M149.759 43.1429V37.7714H150.885C151.425 37.7714 151.851 37.8254 152.164 37.9313C152.5 38.0351 152.806 38.2123 153.079 38.4631C153.632 38.9689 153.911 39.6325 153.911 40.456C153.911 41.2796 153.621 41.9497 153.044 42.4598C152.755 42.7149 152.45 42.8921 152.132 42.9916C151.836 43.091 151.414 43.1407 150.87 43.1407H149.756L149.759 43.1429ZM150.569 42.3798H150.935C151.298 42.3798 151.6 42.3409 151.842 42.2653C152.084 42.1831 152.301 42.0556 152.497 41.8784C152.897 41.5152 153.096 41.0397 153.096 40.456C153.096 39.8724 152.899 39.3882 152.504 39.0229C152.149 38.6965 151.626 38.5322 150.935 38.5322H150.569V42.3798Z" fill="#313131"/>
<path d="M157.88 37.7714V43.1429H157.069V37.7714H157.88Z" fill="#313131"/>
<path d="M162.116 40.9618V43.1429H161.306V37.7714H162.224C162.674 37.7714 163.013 37.8016 163.244 37.8643C163.476 37.927 163.681 38.0459 163.856 38.2188C164.165 38.5214 164.319 38.8997 164.319 39.3601C164.319 39.8508 164.155 40.242 163.824 40.5295C163.493 40.817 163.05 40.9618 162.492 40.9618H162.116ZM162.116 40.2096H162.419C163.162 40.2096 163.536 39.9221 163.536 39.3493C163.536 38.7765 163.152 38.5171 162.384 38.5171H162.116V40.2075V40.2096Z" fill="#313131"/>
<path d="M170.054 41.8373H167.754L167.155 43.1429H166.282L168.938 37.4342L171.502 43.1429H170.616L170.051 41.8373H170.054ZM169.723 41.0765L168.925 39.2499L168.091 41.0765H169.723Z" fill="#313131"/>
<path d="M175.122 39.9135L177.213 37.7714H178.293L175.866 40.2032L178.309 43.1429H177.223L175.289 40.7522L175.122 40.9186V43.1407H174.312V37.7692H175.122V39.9114V39.9135Z" fill="#313131"/>
<path d="M184.134 38.5323H181.981V39.8227H184.071V40.5836H181.981V42.3777H184.134V43.1386H181.171V37.7671H184.134V38.528V38.5323Z" fill="#313131"/>
<path d="M61.9185 41.1283H41.2733C41.0355 41.1283 40.8409 40.9338 40.8409 40.696C40.8409 40.4582 41.0355 40.2637 41.2733 40.2637H61.9185C62.1563 40.2637 62.3508 40.4582 62.3508 40.696C62.3508 40.9338 62.1563 41.1283 61.9185 41.1283Z" fill="#313131"/>
<path d="M209.191 41.1283H188.546C188.308 41.1283 188.114 40.9338 188.114 40.696C188.114 40.4582 188.308 40.2637 188.546 40.2637H209.191C209.429 40.2637 209.623 40.4582 209.623 40.696C209.623 40.9338 209.429 41.1283 209.191 41.1283Z" fill="#313131"/>
</svg>
