<svg width="22" height="24" viewBox="0 0 22 24" fill="none" xmlns="http://www.w3.org/2000/svg">
<path d="M21.0074 9.71502C20.8035 9.73035 20.6075 9.74569 20.4036 9.74569C18.1923 9.74569 16.1299 8.65687 14.9223 6.84728V16.708C14.9223 20.7335 11.5817 24 7.46485 24C3.34797 24 0.0152588 20.7335 0.0152588 16.708C0.0152588 12.6824 3.35581 9.41597 7.47269 9.41597C7.62952 9.41597 7.77852 9.43131 7.93535 9.43898V13.0275C7.78636 13.0121 7.62952 12.9815 7.47269 12.9815C5.37112 12.9815 3.66948 14.6454 3.66948 16.7003C3.66948 18.7553 5.37112 20.4192 7.47269 20.4192C9.57426 20.4192 11.4327 18.8013 11.4327 16.7463L11.4719 0H14.985C15.3144 3.08243 17.8551 5.4901 21.0153 5.71246V9.70735" fill="#242424"/>
</svg>
